<?xml version="1.0" encoding="UTF-8"?>
<!-- (c) Carrd Inc. All rights reserved. All logos and trademarks are property of their respective owners. -->
<svg xmlns="http://www.w3.org/2000/svg" version="1.1" xmlns:xlink="http://www.w3.org/1999/xlink" viewBox="0 0 40 40" display="none" width="0" height="0">
	<symbol id="menu-light" viewBox="0 0 40 40"><path d="M3,32.2l0-1.6c0-0.3,0.2-0.5,0.5-0.5l33-0.1c0.3,0,0.5,0.2,0.5,0.5l0,1.6c0,0.3-0.2,0.5-0.5,0.5l-33,0.1 C3.2,32.7,3,32.5,3,32.2z M3,20.8l0-1.6c0-0.3,0.2-0.5,0.5-0.5l33-0.1c0.3,0,0.5,0.2,0.5,0.5l0,1.6c0,0.3-0.2,0.5-0.5,0.5l-33,0.1 C3.2,21.3,3,21.1,3,20.8z M3,9.5l0-1.6c0-0.3,0.2-0.5,0.5-0.5l33-0.1c0.3,0,0.5,0.2,0.5,0.5l0,1.6c0,0.3-0.2,0.5-0.5,0.5L3.5,10 C3.2,10,3,9.8,3,9.5z"/></symbol>
	<symbol id="user-alt" viewBox="0 0 40 40"><path d="M31.6,36.5H8.4c-1.7,0-3.1-1.4-3.1-3.1v-4.6c0-3.8,1.8-6.9,5.2-9c1.1-0.7,2.4-1.2,3.8-1.6 c-0.8-0.7-1.5-1.5-2-2.4c-0.8-1.3-1.2-2.9-1.2-4.4c0-4.9,4-8.9,8.9-8.9s8.9,4,8.9,8.9c0,1.6-0.4,3.1-1.2,4.4c-0.5,0.9-1.2,1.7-2,2.4 c1.4,0.4,2.7,1,3.8,1.6c3.4,2,5.2,5.1,5.2,9v4.6C34.7,35.1,33.3,36.5,31.6,36.5z M20,5.4c-3.3,0-6,2.7-6,6s2.7,6,6,6s6-2.7,6-6 S23.3,5.4,20,5.4z M8.2,28.8v4.6c0,0.1,0.1,0.2,0.2,0.2h23.2c0.1,0,0.2-0.1,0.2-0.2v-4.6c0-3-1.4-5.2-4.2-6.7 c-2-1.1-4.9-1.8-7.7-1.8C15.6,20.3,8.2,22.1,8.2,28.8z"/></symbol>
	<symbol id="email-alt" viewBox="0 0 40 40"><path d="M34.9,30.5V15.6c-0.4,0.4-0.8,0.9-1.4,1.2c-3.4,2.7-6.2,4.8-8.2,6.6c-0.6,0.5-1.1,0.9-1.6,1.2c-0.4,0.3-0.9,0.6-1.7,0.9 c-0.7,0.3-1.4,0.5-2,0.5l0,0c-0.6,0-1.2-0.2-2-0.5c-0.7-0.3-1.2-0.6-1.7-0.9c-0.4-0.3-0.9-0.7-1.6-1.2c-2.1-1.7-4.8-3.8-8.2-6.6 c-0.5-0.4-0.9-0.8-1.4-1.2v14.9c0,0.2,0.1,0.3,0.2,0.4C5.7,31,5.9,31.1,6,31.1h28.4c0.2,0,0.3-0.1,0.4-0.2 C34.8,30.8,34.9,30.7,34.9,30.5L34.9,30.5z M34.9,10.2V9.7c0,0,0-0.1,0-0.2c0-0.1,0-0.2-0.1-0.2c-0.1,0-0.1,0-0.1-0.2 c0-0.1-0.1-0.2-0.2-0.1c-0.1,0-0.2,0-0.3,0H5.8C5.6,8.9,5.4,9,5.3,9.1C5.2,9.2,5.1,9.3,5.1,9.5c0,2.2,0.9,4,2.8,5.5 c2.5,2,5.1,4,7.7,6.1c0.1,0.1,0.3,0.2,0.7,0.5c0.4,0.3,0.6,0.5,0.9,0.7c0.2,0.2,0.5,0.4,0.8,0.6c0.3,0.2,0.7,0.4,0.9,0.5 c0.3,0.1,0.6,0.2,0.8,0.2l0,0c0.2,0,0.5-0.1,0.8-0.2c0.3-0.1,0.6-0.3,0.9-0.5c0.3-0.2,0.6-0.4,0.8-0.6c0.2-0.2,0.5-0.4,0.9-0.7 c0.4-0.3,0.6-0.5,0.6-0.5c2.7-2.1,5.3-4.2,7.7-6.1c0.7-0.5,1.4-1.2,2-2.2C34.6,11.8,34.9,11,34.9,10.2L34.9,10.2z M37.3,9.5v21 c0,0.8-0.3,1.6-0.9,2.2s-1.4,0.9-2.2,0.9H5.8c-0.8,0-1.6-0.3-2.2-0.9c-0.6-0.6-0.9-1.4-0.9-2.2v-21c0-0.8,0.3-1.6,0.9-2.2 s1.4-0.9,2.2-0.9h28.4c0.8,0,1.6,0.3,2.2,0.9S37.3,8.7,37.3,9.5z"/></symbol>
	<symbol id="cart-alt" viewBox="0 0 40 40"><path d="M34.4,23.1c-0.2,0.3-0.5,0.4-0.8,0.4L12.2,26c0.2,0.8,0.3,1.3,0.3,1.4c0,0.2-0.2,0.7-0.5,1.3h18.8 c0.4,0,0.7,0.1,0.9,0.4c0.3,0.3,0.4,0.6,0.4,0.9c0,0.4-0.1,0.7-0.4,0.9c-0.3,0.3-0.6,0.4-0.9,0.4h-1.3H11.2H9.9 c-0.4,0-0.7-0.1-0.9-0.4c-0.3-0.3-0.4-0.6-0.4-0.9c0-0.2,0.1-0.4,0.2-0.6c0.1-0.3,0.2-0.5,0.3-0.7c0.1-0.2,0.3-0.5,0.4-0.8 c0.2-0.3,0.3-0.5,0.3-0.6l-3.6-18H2c-0.4,0-0.7-0.1-0.9-0.4C0.8,8.7,0.7,8.4,0.7,8c0-0.4,0.1-0.7,0.4-0.9C1.3,6.8,1.6,6.7,2,6.7h5.2 c0.2,0,0.4,0,0.6,0.1C8,6.9,8.1,7,8.2,7.1c0.1,0.1,0.2,0.3,0.3,0.5C8.6,7.9,8.6,8,8.7,8.2c0,0.1,0.1,0.3,0.1,0.6 c0,0.3,0.1,0.4,0.1,0.5h24.6c0.4,0,0.7,0.1,0.9,0.4c0.3,0.3,0.4,0.6,0.4,0.9v11.6C34.8,22.5,34.6,22.8,34.4,23.1z M32.5,11.5 c-0.1-0.1-0.1-0.1-0.5-0.1c-3.6,0-22.7,0-22.7,0l2.4,12.2c0,0,17.4-1.9,20.5-2.2c0.3,0,0.2-0.1,0.3-0.2c0.1-0.1,0.1-0.1,0.1-0.4 c0-1.5,0-7.3,0-8.9C32.6,11.7,32.6,11.6,32.5,11.5z M31.4,32.2c0.5,0.5,0.8,1.1,0.8,1.9c0,0.7-0.3,1.3-0.8,1.9 c-0.5,0.5-1.1,0.8-1.8,0.8c-0.7,0-1.3-0.3-1.8-0.8c-0.5-0.5-0.8-1.1-0.8-1.9c0-0.7,0.3-1.3,0.8-1.9c0.5-0.5,1.1-0.8,1.8-0.8 C30.2,31.4,30.8,31.7,31.4,32.2z M13,32.2c0.5,0.5,0.8,1.1,0.8,1.9c0,0.7-0.3,1.3-0.8,1.9c-0.5,0.5-1.1,0.8-1.8,0.8 c-0.7,0-1.3-0.3-1.8-0.8c-0.5-0.5-0.8-1.1-0.8-1.9c0-0.7,0.3-1.3,0.8-1.9c0.5-0.5,1.1-0.8,1.8-0.8C11.9,31.4,12.5,31.7,13,32.2z" /></symbol>
	<symbol id="email" viewBox="0 0 40 40"><path d="M37.3,15.3v15.3c0,0.8-0.3,1.6-0.9,2.2c-0.6,0.6-1.4,0.9-2.2,0.9H5.8c-0.8,0-1.6-0.3-2.2-0.9s-0.9-1.4-0.9-2.2V15.3 c0.5,0.6,1.2,1.1,2,1.7c4.7,3.1,7.9,5.4,9.6,6.7c0.7,0.5,1.4,0.9,1.8,1.2c0.4,0.3,1,0.6,1.9,0.9c0.7,0.3,1.5,0.5,2.1,0.5l0,0 c0.6,0,1.4-0.2,2.1-0.5c0.7-0.3,1.4-0.6,1.9-0.9c0.4-0.3,1-0.7,1.8-1.2c2.2-1.6,5.4-3.8,9.6-6.7C36.1,16.5,36.7,15.9,37.3,15.3 L37.3,15.3z M37.3,9.6c0,1-0.3,2-0.9,2.9c-0.6,0.9-1.5,1.8-2.4,2.4c-4.9,3.3-7.9,5.4-9,6.2c-0.1,0.1-0.4,0.3-0.8,0.6 c-0.4,0.3-0.7,0.5-1,0.7c-0.3,0.2-0.6,0.4-1,0.6c-0.4,0.2-0.7,0.4-1.1,0.5c-0.4,0.1-0.6,0.2-0.9,0.2l0,0c-0.3,0-0.6-0.1-0.9-0.2 c-0.3-0.1-0.7-0.3-1.1-0.5c-0.4-0.2-0.7-0.4-1-0.6c-0.3-0.2-0.6-0.4-1-0.7c-0.4-0.3-0.7-0.5-0.8-0.6c-1.1-0.8-2.8-2-5.1-3.5 c-2.3-1.6-3.3-2.4-3.7-2.7c-0.8-0.5-1.6-1.2-2.3-2.2s-1-1.9-1-2.6c0-1,0.3-1.9,0.8-2.5c0.5-0.6,1.2-1,2.3-1h28.4 c0.8,0,1.6,0.3,2.2,0.9C37.1,8.1,37.3,8.8,37.3,9.6L37.3,9.6z"/></symbol>
	<symbol id="linkedin" viewBox="0 0 40 40"><path d="M12.1,13.8v19.1H5.7V13.8C5.7,13.8,12.1,13.8,12.1,13.8z M12.5,7.9c0,0.9-0.3,1.7-1,2.4c-0.7,0.6-1.5,0.9-2.6,0.9h0 c-1.1,0-1.9-0.3-2.5-0.9c-0.6-0.6-1-1.4-1-2.4c0-1,0.3-1.7,1-2.4S7.9,4.6,9,4.6s1.9,0.3,2.6,0.9S12.5,6.9,12.5,7.9z M35,22v11h-6.4 V22.7c0-1.4-0.3-2.4-0.8-3.2c-0.5-0.8-1.3-1.1-2.4-1.1c-0.8,0-1.5,0.2-2,0.7c-0.5,0.4-1,1-1.2,1.7c-0.1,0.4-0.2,0.9-0.2,1.6v10.7 h-6.4c0-5.1,0-9.3,0-12.5s0-5.1,0-5.7l0-0.9H22v2.8h0c0.3-0.4,0.5-0.8,0.8-1.1c0.3-0.3,0.6-0.6,1.1-1c0.5-0.4,1-0.6,1.7-0.8 c0.7-0.2,1.4-0.3,2.2-0.3c2.2,0,4,0.7,5.3,2.2C34.4,17,35,19.1,35,22L35,22z"/></symbol>
	<symbol id="behance" viewBox="0 0 40 40"><path d="M34.3,10.5h-8.7v2.1h8.7V10.5z M30,17.8c-1.1,0-1.8,0.3-2.5,0.9c-0.7,0.6-1,1.4-1.1,2.4h7C33.3,18.8,32.1,17.8,30,17.8 L30,17.8z M30.3,27.8c0.8,0,1.4-0.2,2.1-0.6c0.7-0.4,1.2-0.9,1.3-1.5h3.7c-1.2,3.6-3.6,5.3-7.3,5.3c-2.4,0-4.4-0.8-5.9-2.3 c-1.4-1.5-2.2-3.5-2.2-6c0-2.4,0.8-4.3,2.2-6c1.4-1.6,3.5-2.4,5.8-2.4c1.5,0,3,0.4,4.1,1.2s2,1.8,2.6,3.1s0.9,2.7,0.9,4.2 c0,0.2,0,0.5,0,0.8H26.4c0,1.2,0.3,2.2,1,3S29,27.8,30.3,27.8z M7.4,26.9h5.1c2.3,0,3.6-1,3.6-2.9c0-2-1.2-3.1-3.5-3.1H7.4V26.9z M7.4,17.7h4.8c0.9,0,1.6-0.2,2.1-0.7c0.5-0.5,0.8-1.1,0.8-1.9c0-1.6-1.1-2.5-3.3-2.5H7.4C7.4,12.7,7.4,17.7,7.4,17.7z M2.6,9h10.2 c1,0,1.9,0.1,2.7,0.3c0.8,0.2,1.5,0.4,2.2,0.8c0.7,0.4,1.2,1,1.5,1.6c0.4,0.8,0.6,1.6,0.6,2.7c0,2.1-1,3.6-3,4.5 c1.3,0.4,2.3,1.1,3,2c0.7,1,1,2.1,1,3.5c0,0.9-0.1,1.6-0.4,2.3c-0.3,0.7-0.7,1.2-1.2,1.7s-1.1,0.9-1.7,1.2c-0.7,0.3-1.3,0.6-2.1,0.8 c-0.7,0.2-1.4,0.2-2.3,0.2H2.6V9L2.6,9z"/></symbol>
	<symbol id="github" viewBox="0 0 40 40"><path d="M36,20.3c0,3.5-1,6.6-3.1,9.4c-2,2.8-4.7,4.7-7.9,5.8c-0.4,0.1-0.6,0-0.8-0.1c-0.2-0.2-0.3-0.4-0.3-0.6v-4.4 c0-1.3-0.4-2.3-1.1-3c0.8-0.1,1.5-0.2,2.1-0.4c0.6-0.2,1.3-0.4,2-0.8c0.7-0.4,1.2-0.8,1.7-1.4c0.5-0.5,0.8-1.3,1.1-2.2 s0.4-2,0.4-3.1c0-1.7-0.5-3.1-1.6-4.3c0.5-1.3,0.5-2.7-0.2-4.2c-0.4-0.1-1,0-1.7,0.2c-0.7,0.3-1.4,0.6-1.9,0.9L24,12.5 c-1.3-0.4-2.6-0.5-4-0.5s-2.7,0.2-4,0.5c-0.2-0.2-0.5-0.3-0.9-0.6c-0.4-0.2-0.9-0.5-1.7-0.8c-0.8-0.3-1.4-0.4-1.8-0.3 c-0.6,1.6-0.7,3-0.1,4.2c-1.1,1.2-1.6,2.6-1.6,4.3c0,1.2,0.1,2.2,0.4,3.1s0.6,1.6,1.1,2.2s1,1,1.7,1.4c0.7,0.4,1.3,0.6,2,0.8 c0.6,0.2,1.3,0.3,2.1,0.4c-0.6,0.5-0.9,1.2-1,2.1c-0.3,0.1-0.6,0.2-0.9,0.3c-0.3,0.1-0.7,0.1-1.2,0.1c-0.5,0-0.9-0.1-1.4-0.4 c-0.5-0.3-0.8-0.7-1.2-1.3c-0.3-0.4-0.6-0.8-1-1.1c-0.4-0.3-0.8-0.4-1-0.5L9,26.5c-0.3,0-0.5,0-0.6,0.1c-0.1,0.1-0.1,0.1-0.1,0.2 c0,0.1,0.1,0.2,0.2,0.3c0.1,0.1,0.2,0.2,0.3,0.2l0.1,0.1c0.3,0.1,0.6,0.4,0.9,0.8s0.5,0.7,0.7,1.1l0.2,0.5c0.2,0.5,0.5,1,0.9,1.3 c0.4,0.3,0.9,0.5,1.4,0.6c0.5,0.1,1,0.1,1.4,0.1c0.5,0,0.9,0,1.2-0.1l0.5-0.1c0,0.5,0,1.1,0,1.9c0,0.7,0,1.1,0,1.1 c0,0.2-0.1,0.5-0.3,0.6c-0.2,0.2-0.5,0.2-0.8,0.1c-3.2-1.1-5.8-3-7.9-5.8S4,23.8,4,20.3c0-2.9,0.7-5.6,2.1-8S9.5,7.8,12,6.4 s5.1-2.1,8-2.1s5.6,0.7,8,2.1s4.4,3.4,5.8,5.8S36,17.4,36,20.3L36,20.3z"/></symbol>
	<symbol id="instagram" viewBox="0 0 40 40"><path d="M20,7c4.2,0,4.7,0,6.3,0.1c1.5,0.1,2.3,0.3,3,0.5C30,8,30.5,8.3,31.1,8.9c0.5,0.5,0.9,1.1,1.2,1.8c0.2,0.5,0.5,1.4,0.5,3 C33,15.3,33,15.8,33,20s0,4.7-0.1,6.3c-0.1,1.5-0.3,2.3-0.5,3c-0.3,0.7-0.6,1.2-1.2,1.8c-0.5,0.5-1.1,0.9-1.8,1.2 c-0.5,0.2-1.4,0.5-3,0.5C24.7,33,24.2,33,20,33s-4.7,0-6.3-0.1c-1.5-0.1-2.3-0.3-3-0.5C10,32,9.5,31.7,8.9,31.1 C8.4,30.6,8,30,7.7,29.3c-0.2-0.5-0.5-1.4-0.5-3C7,24.7,7,24.2,7,20s0-4.7,0.1-6.3c0.1-1.5,0.3-2.3,0.5-3C8,10,8.3,9.5,8.9,8.9 C9.4,8.4,10,8,10.7,7.7c0.5-0.2,1.4-0.5,3-0.5C15.3,7.1,15.8,7,20,7z M20,4.3c-4.3,0-4.8,0-6.5,0.1c-1.6,0-2.8,0.3-3.8,0.7 C8.7,5.5,7.8,6,6.9,6.9C6,7.8,5.5,8.7,5.1,9.7c-0.4,1-0.6,2.1-0.7,3.8c-0.1,1.7-0.1,2.2-0.1,6.5s0,4.8,0.1,6.5 c0,1.6,0.3,2.8,0.7,3.8c0.4,1,0.9,1.9,1.8,2.8c0.9,0.9,1.7,1.4,2.8,1.8c1,0.4,2.1,0.6,3.8,0.7c1.6,0.1,2.2,0.1,6.5,0.1 s4.8,0,6.5-0.1c1.6-0.1,2.9-0.3,3.8-0.7c1-0.4,1.9-0.9,2.8-1.8c0.9-0.9,1.4-1.7,1.8-2.8c0.4-1,0.6-2.1,0.7-3.8 c0.1-1.6,0.1-2.2,0.1-6.5s0-4.8-0.1-6.5c-0.1-1.6-0.3-2.9-0.7-3.8c-0.4-1-0.9-1.9-1.8-2.8c-0.9-0.9-1.7-1.4-2.8-1.8 c-1-0.4-2.1-0.6-3.8-0.7C24.8,4.3,24.3,4.3,20,4.3L20,4.3L20,4.3z"/><path d="M20,11.9c-4.5,0-8.1,3.7-8.1,8.1s3.7,8.1,8.1,8.1s8.1-3.7,8.1-8.1S24.5,11.9,20,11.9z M20,25.2c-2.9,0-5.2-2.3-5.2-5.2 s2.3-5.2,5.2-5.2s5.2,2.3,5.2,5.2S22.9,25.2,20,25.2z"/><path d="M30.6,11.6c0,1-0.8,1.9-1.9,1.9c-1,0-1.9-0.8-1.9-1.9s0.8-1.9,1.9-1.9C29.8,9.7,30.6,10.5,30.6,11.6z"/></symbol>
	<symbol id="cancel-light" viewBox="0 0 40 40"><path d="M7.6,30.5l10.3-10.3L7.6,9.9c-0.2-0.2-0.2-0.5,0-0.7L9,7.8c0.2-0.2,0.5-0.2,0.7,0L20,18L30.3,7.8c0.2-0.2,0.5-0.2,0.7,0 l1.4,1.4c0.2,0.2,0.2,0.5,0,0.7L22.2,20.2l10.3,10.3c0.2,0.2,0.2,0.5,0,0.7L31,32.6c-0.2,0.2-0.5,0.2-0.7,0L20,22.4L9.7,32.6 c-0.2,0.2-0.5,0.2-0.7,0l-1.5-1.5C7.4,31,7.4,30.6,7.6,30.5z"/></symbol>
	<symbol id="message-alt" viewBox="0 0 40 40"><path d="M35.7,13c-1.6-2-3.8-3.5-6.5-4.7c-2.8-1.1-5.8-1.7-9-1.7s-6.3,0.6-9,1.7C8.3,9.4,6.1,11,4.5,13 c-1.6,2-2.4,4.1-2.4,6.5c0,2,0.6,3.9,1.8,5.7c1.2,1.8,2.9,3.2,5,4.4c-0.1,0.5-0.3,1-0.5,1.5c-0.2,0.5-0.4,0.9-0.5,1.2 c-0.2,0.3-0.4,0.7-0.7,1c-0.3,0.4-0.5,0.6-0.6,0.8c-0.1,0.2-0.4,0.4-0.7,0.8c-0.3,0.4-0.5,0.6-0.6,0.7c0,0-0.1,0.1-0.2,0.2 C5,35.8,5,35.8,5,35.8L4.8,36c-0.1,0.1-0.1,0.2-0.1,0.2c0,0,0,0.1,0,0.2c0,0.1,0,0.2,0,0.2v0c0.1,0.2,0.2,0.4,0.3,0.6 c0.2,0.1,0.3,0.2,0.5,0.2h0.1C6.6,37.3,7.3,37.2,8,37c3.5-0.9,6.6-2.5,9.2-4.9c1,0.1,2,0.2,2.9,0.2c3.3,0,6.3-0.6,9-1.7 c2.8-1.1,4.9-2.7,6.5-4.7c1.6-2,2.4-4.1,2.4-6.5C38.1,17.1,37.3,14.9,35.7,13z M33.5,24.6c-1.4,1.6-3.3,2.8-5.7,3.8 c-2.4,0.9-4.9,1.4-7.7,1.4c-0.8,0-1.7-0.1-2.6-0.2l-1.1-0.1l-0.9,0.8c-1.6,1.4-3.5,2.6-5.5,3.4c0.6-1.1,1.1-2.2,1.4-3.5l0.5-1.9 l-1.7-1c-1.7-1-3.1-2.2-4-3.5c-1-1.4-1.4-2.8-1.4-4.3c0-1.8,0.7-3.5,2.1-5.1c1.4-1.6,3.3-2.8,5.7-3.8s4.9-1.4,7.7-1.4 s5.3,0.5,7.7,1.4s4.3,2.2,5.7,3.8c1.4,1.6,2.1,3.3,2.1,5.1C35.6,21.3,34.9,23,33.5,24.6z" /></symbol>
</svg>
